# xmcd
#
# Track frame offsets:
#       150
#       17572
#       29480
#       42402
#       59607
#       71625
#       86752
#
# Disc length: 1328 seconds
#
# Revision: 1
# Processed by: cddbd v1.5PL3 Copyright (c) Steve Scherf et al.
# Submitted via: MusiCat 1.1
#
DISCID=5e052e07
DTITLE=Nihilo - In Cinemascope
DYEAR=1900
DGENRE=
TTITLE0=Rádio
TTITLE1=Nihilo
TTITLE2=Citizens
TTITLE3=Vitrine
TTITLE4=Pf2
TTITLE5=Robber sun
TTITLE6=18
EXTD=\n\n
EXTT0=
EXTT1=
EXTT2=
EXTT3=
EXTT4=
EXTT5=
EXTT6=
PLAYORDER=
